<svg xmlns="http://www.w3.org/2000/svg" viewBox="0 0 100 100" fill="none">
  <defs>
    <!-- Gold-to-moonblue gradient matching site tokens -->
    <linearGradient id="g" x1="0%" y1="0%" x2="100%" y2="100%">
      <stop offset="0%" stop-color="#e8a828"/>
      <stop offset="55%" stop-color="#a0d0f0"/>
      <stop offset="100%" stop-color="#5aabdd"/>
    </linearGradient>
  </defs>

  <!-- Star top-left -->
  <path d="M24 18 l1.5 3.2 3.5 0.5 -2.5 2.4 0.6 3.4 -3.1-1.6 -3.1 1.6 0.6-3.4 -2.5-2.4 3.5-0.5z"
        fill="url(#g)" stroke="url(#g)" stroke-width="0.3" stroke-linejoin="round"/>

  <!-- Star top-center -->
  <path d="M50 10 l1.5 3.2 3.5 0.5 -2.5 2.4 0.6 3.4 -3.1-1.6 -3.1 1.6 0.6-3.4 -2.5-2.4 3.5-0.5z"
        fill="url(#g)" stroke="url(#g)" stroke-width="0.3" stroke-linejoin="round"/>

  <!-- Star top-right -->
  <path d="M76 18 l1.5 3.2 3.5 0.5 -2.5 2.4 0.6 3.4 -3.1-1.6 -3.1 1.6 0.6-3.4 -2.5-2.4 3.5-0.5z"
        fill="url(#g)" stroke="url(#g)" stroke-width="0.3" stroke-linejoin="round"/>

  <!-- Rainbow arches -->
  <path d="M14 68 Q14 32 50 32 Q86 32 86 68"
        stroke="url(#g)" stroke-width="4.5" stroke-linecap="round" fill="none"/>
  <path d="M22 68 Q22 42 50 42 Q78 42 78 68"
        stroke="url(#g)" stroke-width="4.5" stroke-linecap="round" fill="none"/>
  <path d="M30 68 Q30 52 50 52 Q70 52 70 68"
        stroke="url(#g)" stroke-width="4.5" stroke-linecap="round" fill="none"/>

  <!-- Book base -->
  <path d="M14 67 L14 80 Q32 77 50 78 L50 65 Q32 64 14 67z"
        stroke="url(#g)" stroke-width="3" stroke-linejoin="round" fill="none"/>
  <path d="M86 67 L86 80 Q68 77 50 78 L50 65 Q68 64 86 67z"
        stroke="url(#g)" stroke-width="3" stroke-linejoin="round" fill="none"/>
  <line x1="50" y1="65" x2="50" y2="78" stroke="url(#g)" stroke-width="3" stroke-linecap="round"/>
  <line x1="11" y1="80" x2="89" y2="80" stroke="url(#g)" stroke-width="3.5" stroke-linecap="round"/>
</svg>
