<svg xmlns="http://www.w3.org/2000/svg" viewBox="0 0 40 40" fill="none">
  <defs>
    <linearGradient id="g" x1="0%" y1="0%" x2="100%" y2="100%">
      <stop offset="0%" stop-color="#e8a828"/>
      <stop offset="100%" stop-color="#5aabdd"/>
    </linearGradient>
  </defs>
  <!-- Scroll body -->
  <rect x="9" y="10" width="22" height="24" rx="2" stroke="url(#g)" stroke-width="2.2" fill="url(#g)" fill-opacity="0.08"/>
  <!-- Top curl -->
  <path d="M9 10 Q9 5 14 5 Q19 5 19 10" stroke="url(#g)" stroke-width="2.2" fill="none"/>
  <path d="M22 10 Q22 5 27 5 Q31 5 31 10" stroke="url(#g)" stroke-width="2.2" fill="none"/>
  <!-- Bottom curl -->
  <path d="M9 34 Q9 39 14 39 Q19 39 19 34" stroke="url(#g)" stroke-width="2.2" fill="none"/>
  <path d="M22 34 Q22 39 27 39 Q31 39 31 34" stroke="url(#g)" stroke-width="2.2" fill="none"/>
  <!-- Text lines -->
  <line x1="13" y1="17" x2="27" y2="17" stroke="url(#g)" stroke-width="1.5" stroke-linecap="round" opacity="0.8"/>
  <line x1="13" y1="21" x2="27" y2="21" stroke="url(#g)" stroke-width="1.5" stroke-linecap="round" opacity="0.8"/>
  <line x1="13" y1="25" x2="22" y2="25" stroke="url(#g)" stroke-width="1.5" stroke-linecap="round" opacity="0.8"/>
</svg>
